<svg xmlns="http://www.w3.org/2000/svg" xmlns:xlink="http://www.w3.org/1999/xlink" preserveAspectRatio="xMidYMid" width="22" height="13" viewBox="0 0 22 13">
  <defs>
    <style>

      .cls-2 {
        fill: #ffffff;
      }
    </style>
  </defs>
  <path d="M-0.000,13.000 C-0.000,13.000 -0.000,12.000 -0.000,12.000 C-0.000,12.000 22.000,12.000 22.000,12.000 C22.000,12.000 22.000,13.000 22.000,13.000 C22.000,13.000 -0.000,13.000 -0.000,13.000 ZM-0.000,6.000 C-0.000,6.000 22.000,6.000 22.000,6.000 C22.000,6.000 22.000,7.000 22.000,7.000 C22.000,7.000 -0.000,7.000 -0.000,7.000 C-0.000,7.000 -0.000,6.000 -0.000,6.000 ZM-0.000,-0.000 C-0.000,-0.000 22.000,-0.000 22.000,-0.000 C22.000,-0.000 22.000,1.000 22.000,1.000 C22.000,1.000 -0.000,1.000 -0.000,1.000 C-0.000,1.000 -0.000,-0.000 -0.000,-0.000 Z" id="path-1" class="cls-2" fill-rule="evenodd"/>
</svg>
